<?xml version="1.0" standalone="no"?>
<!DOCTYPE svg PUBLIC "-//W3C//DTD SVG 20010904//EN"
 "http://www.w3.org/TR/2001/REC-SVG-20010904/DTD/svg10.dtd">
<svg version="1.0" xmlns="http://www.w3.org/2000/svg"
 width="1350.000000pt" height="1350.000000pt" viewBox="0 0 1350.000000 1350.000000"
 preserveAspectRatio="xMidYMid meet">
<metadata>
Created by potrace 1.10, written by Peter Selinger 2001-2011
</metadata>
<g transform="translate(0.000000,1350.000000) scale(0.100000,-0.100000)"
fill="#000000" stroke="none">
<path d="M3485 9740 c-111 -11 -228 -30 -248 -41 -10 -6 -41 -13 -68 -16 -27
-3 -52 -10 -55 -14 -3 -5 -13 -9 -22 -9 -9 -1 -35 -9 -57 -20 -22 -11 -46 -19
-52 -20 -21 0 -15 -27 10 -42 12 -8 41 -18 65 -22 24 -3 51 -11 60 -16 9 -5
40 -19 67 -30 76 -32 274 -135 285 -149 3 -3 32 -24 65 -46 33 -22 65 -44 72
-50 6 -5 26 -21 45 -35 31 -24 248 -238 277 -275 8 -9 43 -56 78 -104 35 -47
67 -90 71 -96 15 -20 67 -111 92 -160 14 -28 28 -51 33 -53 4 -2 7 -9 7 -15 1
-7 9 -30 20 -52 11 -22 19 -47 20 -55 0 -9 4 -20 9 -25 10 -10 23 -56 41 -143
5 -23 14 -51 20 -61 5 -11 10 -37 10 -58 0 -86 -9 -82 182 -82 94 0 185 -5
202 -10 17 -5 57 -12 88 -16 32 -3 60 -10 63 -15 3 -5 26 -12 50 -16 25 -3 47
-10 50 -14 3 -5 23 -11 45 -15 22 -4 42 -11 46 -16 3 -5 12 -9 20 -9 8 0 34
-8 57 -19 23 -10 57 -24 76 -32 73 -30 303 -151 331 -173 8 -7 44 -30 80 -51
36 -21 67 -41 70 -44 3 -3 28 -21 55 -40 94 -65 150 -104 155 -111 3 -3 33
-27 67 -53 34 -26 68 -53 75 -60 7 -7 42 -37 78 -67 144 -121 444 -419 592
-588 20 -23 41 -42 46 -42 5 0 18 12 27 27 23 34 124 141 311 328 152 152 177
176 294 275 85 72 120 103 134 116 23 22 253 191 291 214 22 13 42 26 45 29 3
4 14 11 25 18 11 7 50 30 87 52 36 23 71 41 77 41 6 0 11 4 11 8 0 5 25 19 55
33 30 13 55 27 55 32 0 4 5 7 12 7 6 0 39 13 72 29 106 51 154 71 170 71 8 0
18 5 21 10 3 6 13 10 22 10 8 0 29 6 46 14 18 8 55 20 82 26 28 6 82 18 120
27 44 10 139 17 255 20 101 2 190 9 196 14 7 6 15 36 17 67 6 68 29 177 40
188 4 4 7 16 7 27 0 10 7 35 16 55 59 136 87 195 95 202 3 3 12 17 20 32 116
220 343 479 564 644 55 41 105 78 110 82 28 21 114 70 133 76 12 4 22 11 22
16 0 5 14 11 30 15 17 4 30 11 30 16 0 5 5 9 11 9 10 0 89 33 120 50 9 5 34
12 55 16 22 4 49 14 62 22 24 15 30 42 9 42 -7 0 -29 9 -50 20 -20 11 -46 20
-56 20 -11 0 -22 4 -25 9 -3 4 -29 11 -58 15 -28 4 -57 10 -62 14 -15 10 -134
30 -236 41 -111 12 -518 13 -640 1 -126 -12 -296 -43 -386 -71 -17 -5 -40 -9
-53 -9 -12 0 -34 -6 -49 -14 -15 -7 -46 -17 -69 -21 -24 -4 -45 -11 -49 -16
-3 -5 -13 -9 -22 -9 -9 0 -29 -6 -44 -14 -15 -8 -41 -17 -59 -21 -19 -4 -40
-11 -49 -16 -8 -5 -37 -18 -65 -30 -120 -51 -337 -162 -363 -186 -7 -7 -19
-13 -25 -13 -22 -1 -55 -36 -85 -92 -56 -105 -230 -310 -347 -408 -141 -118
-294 -220 -410 -274 -44 -21 -88 -41 -97 -47 -30 -16 -48 -11 -48 14 0 13 -4
27 -10 33 -5 5 -14 54 -20 109 -26 256 -30 279 -51 297 -27 23 -38 17 -118
-66 -47 -49 -72 -67 -100 -72 -20 -4 -41 -11 -48 -16 -12 -10 -122 -5 -182 7
-23 5 -54 30 -104 81 -110 114 -136 102 -153 -70 -25 -250 -47 -335 -82 -317
-9 5 -53 27 -97 48 -44 21 -82 41 -85 45 -3 4 -14 11 -25 15 -24 10 -193 122
-215 143 -9 8 -38 33 -66 55 -132 107 -273 263 -362 399 -28 44 -53 82 -54 86
-4 10 -153 100 -166 100 -6 0 -12 3 -14 8 -4 9 -151 82 -166 82 -7 0 -12 5
-12 10 0 6 -6 10 -12 10 -7 1 -31 9 -53 20 -22 11 -48 19 -57 20 -9 0 -20 5
-23 10 -3 6 -14 10 -23 10 -9 1 -35 9 -57 20 -22 11 -48 19 -57 20 -9 0 -19 4
-22 9 -4 5 -25 12 -49 16 -23 4 -54 14 -69 21 -15 8 -40 14 -57 14 -16 0 -33
5 -36 10 -3 6 -21 10 -38 10 -18 0 -48 5 -67 11 -48 15 -177 38 -280 49 -97
10 -540 10 -645 0z"/>
<path d="M1747 6276 c-9 -13 -19 -36 -23 -52 -4 -15 -13 -39 -20 -53 -8 -14
-14 -31 -14 -37 0 -7 -7 -25 -15 -40 -8 -16 -15 -37 -15 -46 0 -9 -4 -19 -9
-22 -5 -4 -12 -24 -16 -46 -4 -22 -11 -42 -16 -46 -5 -3 -9 -15 -9 -27 0 -13
-6 -31 -14 -42 -7 -11 -17 -35 -21 -53 -4 -18 -13 -45 -21 -60 -8 -15 -14 -32
-14 -38 0 -7 -7 -25 -15 -40 -8 -16 -15 -39 -15 -51 0 -12 -4 -25 -10 -28 -5
-3 -10 -14 -10 -23 0 -9 -6 -29 -14 -44 -8 -15 -17 -42 -21 -60 -4 -18 -11
-37 -15 -43 -4 -5 -15 -37 -25 -70 -9 -33 -25 -78 -36 -101 -10 -23 -19 -48
-19 -57 0 -9 -4 -19 -10 -22 -5 -3 -10 -14 -10 -23 -1 -9 -9 -35 -20 -57 -11
-22 -19 -48 -20 -57 0 -9 -5 -20 -10 -23 -5 -3 -10 -14 -10 -23 -1 -9 -9 -35
-20 -57 -11 -22 -19 -48 -20 -57 0 -9 -4 -20 -10 -23 -5 -3 -10 -14 -10 -23 0
-9 -7 -30 -15 -46 -8 -15 -15 -36 -15 -45 0 -10 -7 -26 -15 -37 -8 -10 -15
-29 -15 -41 l0 -23 193 0 193 0 16 38 c9 20 20 51 24 67 4 17 10 35 14 40 5 6
11 27 15 48 4 20 11 40 16 43 5 3 9 14 9 24 0 11 7 38 16 60 l16 40 297 -2
296 -3 3 -25 c2 -14 10 -39 18 -57 8 -17 14 -38 14 -47 0 -9 4 -24 9 -34 5 -9
19 -51 32 -92 13 -41 27 -81 32 -87 7 -10 58 -13 197 -13 102 0 189 2 192 5 8
8 -13 86 -29 110 -7 11 -13 29 -13 42 0 12 -4 25 -10 28 -5 3 -10 14 -10 23 0
9 -7 30 -15 46 -8 15 -15 36 -15 45 0 9 -7 29 -15 45 -8 15 -15 33 -15 40 -1
6 -9 29 -20 51 -11 22 -19 48 -20 57 0 9 -4 19 -9 22 -5 3 -12 21 -15 40 -4
20 -13 48 -21 63 -8 15 -15 36 -15 45 0 9 -4 19 -9 23 -5 3 -12 19 -16 36 -4
17 -13 42 -21 57 -8 15 -14 35 -14 44 0 9 -4 20 -10 23 -5 3 -10 16 -10 28 -1
12 -9 40 -20 62 -11 22 -19 48 -20 57 0 9 -4 20 -10 23 -5 3 -10 14 -10 23 0
9 -7 30 -15 46 -8 15 -15 37 -15 47 0 11 -9 36 -20 56 -11 21 -20 45 -20 55 0
9 -4 19 -9 23 -5 3 -12 19 -16 36 -4 17 -13 42 -21 57 -8 15 -14 37 -14 49 0
12 -4 25 -10 28 -5 3 -10 14 -10 23 0 9 -7 30 -15 46 -8 15 -15 33 -15 38 0 5
-11 34 -25 64 l-25 54 -204 0 -204 0 -15 -24z m230 -413 c6 -16 20 -62 33
-103 13 -41 29 -89 37 -107 7 -17 13 -40 13 -51 0 -12 5 -24 10 -27 6 -3 10
-16 10 -28 0 -12 6 -34 14 -49 8 -15 17 -41 21 -57 4 -17 13 -45 21 -61 9 -16
13 -34 9 -40 -8 -14 -342 -14 -350 0 -6 10 28 139 45 171 5 9 12 33 15 53 4
20 11 38 15 41 5 3 11 24 15 48 4 23 11 47 15 52 10 13 37 110 45 158 7 42 17
42 32 0z"/>
<path d="M2957 6288 c-16 -12 -17 -71 -15 -828 l3 -815 175 0 175 0 2 514 c1
282 4 515 6 518 3 2 15 -15 27 -39 12 -24 39 -65 59 -93 58 -77 111 -154 111
-161 0 -3 6 -12 13 -19 23 -26 33 -40 57 -80 13 -22 28 -44 32 -50 66 -86 113
-153 139 -196 18 -30 35 -56 38 -59 4 -3 31 -42 61 -87 30 -46 58 -83 63 -83
4 0 7 -6 7 -13 0 -12 9 -26 50 -74 5 -7 10 -16 10 -20 0 -4 12 -20 25 -36 l24
-27 163 2 c162 3 162 3 175 28 10 19 12 198 10 805 -2 429 -7 788 -11 798 -8
16 -24 17 -180 15 l-171 -3 -5 -525 -5 -525 -39 65 c-22 36 -42 67 -45 70 -14
12 -51 70 -51 80 0 5 -4 10 -10 10 -5 0 -10 4 -10 10 0 5 -15 30 -32 54 -18
24 -53 74 -78 110 -25 37 -50 72 -55 79 -6 7 -22 30 -35 52 -13 22 -29 45 -35
52 -21 25 -32 41 -109 156 -44 66 -84 124 -90 130 -7 7 -23 30 -36 52 -13 22
-29 45 -35 51 -5 6 -19 27 -29 47 -11 19 -29 38 -40 41 -43 12 -292 6 -309 -6z"/>
<path d="M6759 6290 c-9 -5 -20 -22 -23 -37 -6 -25 -19 -57 -47 -114 -4 -9
-11 -33 -14 -53 -4 -20 -11 -38 -15 -41 -5 -3 -11 -23 -15 -45 -4 -22 -11 -42
-16 -46 -5 -3 -9 -13 -9 -22 0 -9 -7 -29 -14 -44 -8 -16 -25 -58 -37 -95 -12
-38 -28 -82 -35 -100 -8 -17 -14 -38 -14 -46 0 -9 -4 -18 -9 -21 -5 -3 -12
-21 -15 -40 -4 -20 -13 -48 -21 -63 -8 -15 -15 -36 -15 -45 0 -9 -4 -19 -9
-22 -5 -4 -12 -24 -16 -46 -4 -22 -11 -42 -16 -46 -5 -3 -9 -13 -9 -22 -1 -9
-9 -35 -20 -57 -11 -22 -19 -45 -20 -51 0 -7 -7 -25 -15 -40 -8 -16 -15 -37
-15 -46 0 -9 -4 -20 -10 -23 -5 -3 -10 -14 -10 -23 0 -9 -7 -30 -15 -46 -8
-15 -15 -33 -15 -40 -1 -6 -9 -29 -20 -51 -11 -22 -19 -48 -20 -57 0 -9 -4
-19 -9 -22 -5 -3 -12 -21 -15 -40 -4 -20 -13 -48 -21 -63 -8 -15 -15 -33 -15
-39 0 -6 -7 -25 -16 -43 -29 -59 -24 -61 175 -61 99 0 186 3 195 6 8 3 18 22
22 42 4 21 10 42 14 47 4 6 11 26 15 45 4 19 11 40 15 45 4 6 11 26 15 45 4
19 10 40 14 45 3 6 11 26 16 45 l11 35 299 0 300 0 8 -30 c5 -16 13 -37 17
-45 4 -9 11 -31 15 -50 4 -19 11 -39 15 -45 4 -5 11 -26 15 -45 4 -19 11 -39
15 -45 4 -5 10 -23 14 -40 14 -55 14 -55 217 -55 l189 0 0 28 c0 15 -7 40 -15
56 -8 15 -15 33 -15 38 0 6 -6 24 -14 41 -8 18 -25 64 -37 102 -13 39 -26 72
-30 75 -3 3 -10 21 -14 40 -4 19 -11 40 -15 45 -4 6 -18 42 -30 80 -13 39 -27
74 -32 80 -4 5 -8 15 -8 23 0 8 -6 28 -14 45 -7 18 -24 61 -36 97 -13 36 -27
70 -31 75 -4 6 -10 27 -14 48 -4 20 -11 40 -16 43 -5 3 -9 13 -9 22 -1 9 -9
35 -20 57 -11 22 -19 47 -20 56 0 9 -7 30 -15 45 -8 16 -15 37 -15 46 0 9 -4
20 -10 23 -5 3 -10 14 -10 23 0 9 -6 29 -14 44 -8 15 -17 42 -21 60 -4 18 -14
42 -21 53 -8 11 -14 29 -14 42 0 12 -4 25 -10 28 -5 3 -10 14 -10 23 0 9 -7
30 -15 46 -8 15 -15 33 -15 40 0 6 -6 23 -14 37 -7 14 -16 38 -20 55 -4 16
-13 32 -19 36 -18 11 -399 9 -418 -2z m221 -425 c0 -20 54 -187 70 -216 5 -9
12 -34 16 -55 3 -22 10 -43 14 -49 5 -5 11 -27 15 -48 4 -20 11 -40 16 -43 5
-3 9 -15 9 -27 0 -12 7 -35 15 -51 8 -15 15 -32 15 -37 0 -6 -79 -9 -185 -8
-148 1 -185 4 -185 14 0 8 4 16 9 19 5 4 12 24 16 46 4 22 10 42 15 45 5 3 11
23 15 45 4 22 10 42 15 45 4 3 11 25 14 50 4 24 11 47 15 50 5 2 12 21 16 41
3 20 10 44 15 53 9 17 33 94 45 145 5 23 8 27 16 15 5 -7 9 -23 9 -34z"/>
<path d="M7972 6287 c-9 -11 -11 -212 -10 -828 l3 -814 405 0 c398 0 483 6
542 36 10 5 27 9 38 9 33 0 148 67 200 116 25 24 57 65 69 91 12 27 26 56 32
65 12 23 13 266 1 281 -5 7 -13 26 -16 44 -4 17 -14 37 -22 44 -8 6 -14 17
-14 23 0 6 -22 31 -49 56 -63 58 -73 66 -98 74 -12 4 -27 14 -35 23 -11 14
-11 17 2 21 18 6 120 111 120 124 0 5 9 29 20 53 30 65 30 234 1 299 -12 25
-21 49 -21 54 0 5 -27 38 -59 74 -43 47 -80 74 -133 101 -40 20 -83 37 -94 37
-11 0 -26 6 -32 13 -10 9 -112 13 -426 15 -348 3 -414 1 -424 -11z m774 -333
c63 -31 92 -82 89 -160 -2 -57 -26 -99 -78 -136 -30 -22 -43 -23 -229 -26
-138 -3 -198 -1 -198 7 -3 94 0 333 3 339 3 4 85 6 184 4 167 -2 181 -4 229
-28z m48 -648 c38 -18 57 -38 80 -85 17 -36 22 -126 7 -135 -4 -3 -11 -18 -14
-33 -8 -37 -64 -72 -132 -83 -30 -5 -132 -10 -227 -11 l-173 -2 -5 179 c-3 99
-2 181 2 184 3 3 101 4 218 3 166 -1 219 -5 244 -17z"/>
<path d="M9998 6289 c-10 -5 -18 -18 -18 -27 -1 -9 -9 -35 -20 -57 -11 -22
-19 -48 -20 -57 0 -9 -4 -19 -9 -22 -5 -3 -12 -21 -15 -40 -4 -20 -13 -48 -21
-63 -8 -15 -15 -36 -15 -45 0 -9 -4 -19 -9 -23 -5 -3 -12 -19 -16 -36 -4 -17
-13 -42 -21 -57 -8 -15 -14 -37 -14 -49 0 -12 -4 -24 -9 -27 -5 -4 -12 -24
-16 -46 -4 -22 -11 -42 -16 -46 -5 -3 -9 -13 -9 -22 0 -9 -7 -30 -15 -46 -8
-15 -15 -33 -15 -40 0 -6 -7 -24 -15 -39 -8 -15 -17 -43 -21 -63 -3 -19 -10
-37 -15 -40 -5 -3 -9 -13 -9 -22 0 -9 -7 -30 -15 -46 -8 -15 -15 -33 -15 -40
-1 -6 -9 -29 -20 -51 -11 -22 -19 -47 -20 -56 0 -9 -7 -30 -15 -45 -8 -16 -15
-37 -15 -46 0 -9 -4 -20 -10 -23 -5 -3 -10 -14 -10 -23 -1 -9 -9 -35 -20 -57
-11 -22 -19 -48 -20 -57 0 -9 -4 -20 -10 -23 -5 -3 -10 -14 -10 -23 0 -9 -6
-29 -14 -44 -8 -15 -17 -40 -21 -57 -4 -17 -11 -33 -16 -36 -5 -4 -9 -14 -9
-23 0 -9 -7 -30 -15 -45 -8 -16 -16 -40 -17 -55 l-3 -27 175 -3 c193 -3 220 0
220 26 0 9 7 30 15 46 8 15 15 36 15 45 0 9 6 28 14 42 7 14 16 43 20 64 4 20
11 45 16 54 4 9 12 30 17 46 l8 30 300 0 299 0 8 -35 c5 -19 16 -49 24 -67 7
-17 14 -38 14 -46 0 -9 4 -18 9 -21 4 -3 11 -24 15 -47 4 -23 10 -47 14 -53 4
-6 12 -27 17 -46 l11 -35 192 -3 192 -2 0 34 c0 19 -4 38 -10 41 -5 3 -10 14
-10 23 -1 9 -9 35 -20 57 -11 22 -19 48 -20 57 0 9 -4 20 -10 23 -5 3 -10 14
-10 23 -1 9 -9 35 -20 57 -11 22 -19 50 -20 62 0 12 -4 25 -10 28 -5 3 -10 14
-10 23 0 9 -7 30 -15 46 -8 15 -15 33 -15 40 -1 6 -9 29 -20 51 -11 22 -19 47
-20 56 0 9 -7 30 -15 45 -8 16 -15 37 -15 46 0 9 -4 20 -10 23 -5 3 -10 14
-10 23 0 9 -6 29 -14 44 -8 15 -17 41 -21 58 -4 17 -13 43 -21 58 -8 15 -14
33 -14 40 0 7 -4 20 -9 30 -5 9 -19 46 -31 82 -12 36 -29 79 -36 97 -8 17 -14
38 -14 46 0 9 -4 18 -9 22 -5 3 -13 20 -17 37 -3 18 -10 39 -14 48 -5 8 -18
44 -31 80 -12 36 -26 70 -29 75 -4 6 -11 26 -15 45 -4 19 -11 40 -15 45 -4 6
-11 21 -15 35 -17 59 -21 60 -229 60 -111 0 -198 -5 -208 -11z m222 -434 c0
-19 4 -36 9 -39 5 -3 12 -22 16 -42 3 -20 10 -44 15 -53 13 -26 50 -146 50
-164 0 -9 4 -17 9 -17 5 0 12 -18 16 -40 4 -22 10 -42 15 -45 4 -3 11 -25 14
-50 4 -24 11 -47 17 -50 30 -19 -18 -26 -177 -25 -157 2 -202 8 -175 24 5 3
12 23 16 43 4 21 11 43 15 48 5 6 14 30 19 53 6 23 16 60 21 82 6 23 14 48 19
58 8 15 19 51 64 202 5 19 11 41 13 48 7 25 24 1 24 -33z"/>
<path d="M10884 6288 c-13 -20 -12 -287 0 -297 7 -6 107 -10 226 -9 l215 0 5
-668 5 -669 180 0 180 0 2 665 3 665 222 5 c123 3 224 7 226 8 7 6 1 292 -6
296 -18 11 -1252 15 -1258 4z"/>
<path d="M4640 5465 l0 -826 363 4 c443 5 512 15 686 104 101 51 221 153 262
221 13 20 26 39 29 42 15 12 80 154 80 174 0 12 4 26 9 32 12 11 29 151 32
249 2 79 -18 235 -32 249 -5 6 -9 19 -9 30 -1 12 -9 39 -20 61 -11 22 -19 45
-20 52 0 6 -3 13 -7 15 -5 2 -19 24 -33 51 -14 26 -65 87 -115 135 -69 67
-110 97 -175 129 -47 23 -98 45 -115 49 -16 4 -35 11 -42 16 -26 21 -178 31
-525 35 l-368 4 0 -826z m715 497 c124 -19 263 -120 307 -223 42 -97 53 -154
53 -274 0 -123 -5 -148 -56 -263 -36 -79 -150 -180 -225 -198 -16 -4 -34 -11
-41 -16 -7 -6 -97 -11 -200 -11 l-188 -2 -3 503 -2 503 147 -4 c82 -3 175 -10
208 -15z"/>
<path d="M2790 4071 l-45 -6 -3 -278 c-1 -167 2 -285 7 -296 9 -15 19 -17 63
-13 29 3 56 9 60 15 3 6 5 84 4 174 -1 156 4 202 19 151 8 -26 26 -71 60 -143
13 -27 27 -60 30 -73 9 -32 44 -51 83 -45 28 5 36 13 53 52 11 25 27 60 34 76
32 70 44 101 47 119 2 11 9 21 15 23 10 4 13 -37 15 -169 l3 -173 50 -6 c35
-5 57 -2 73 8 l22 14 -2 282 -3 282 -84 3 c-93 3 -115 -7 -126 -59 -4 -16 -11
-31 -16 -34 -5 -4 -9 -14 -9 -23 0 -9 -7 -30 -15 -46 -8 -15 -15 -33 -15 -40
0 -6 -9 -28 -20 -49 -11 -20 -20 -44 -20 -53 0 -18 -21 -14 -30 7 -17 35 -40
88 -60 134 -12 28 -28 64 -36 82 -8 17 -14 36 -14 43 0 36 -57 53 -140 41z"/>
<path d="M4375 4074 c-72 -18 -147 -81 -180 -151 -9 -18 -18 -62 -22 -97 -13
-142 41 -270 133 -315 27 -13 57 -28 66 -32 23 -12 165 -12 172 0 3 4 18 11
34 14 39 8 113 76 139 128 30 60 47 166 34 202 -6 16 -11 38 -11 50 0 31 -36
95 -74 132 -61 60 -84 69 -181 71 -49 2 -99 0 -110 -2z m176 -147 c17 -12 33
-40 44 -74 41 -129 -24 -256 -131 -256 -50 0 -103 35 -128 84 -18 36 -22 164
-6 174 6 3 10 14 10 24 0 27 45 63 87 71 50 9 92 1 124 -23z"/>
<path d="M4947 4073 c-8 -13 -12 -567 -3 -581 11 -18 111 -15 127 4 8 10 12
46 12 110 l-1 94 32 0 c35 0 39 -5 98 -119 21 -41 43 -80 49 -88 12 -13 139
-19 152 -6 7 6 -49 118 -70 141 -7 7 -13 18 -13 24 0 5 -9 21 -20 35 -26 33
-25 37 5 51 13 6 36 29 50 51 20 33 25 53 25 107 0 77 -18 110 -84 152 -39 25
-49 26 -197 30 -86 2 -159 0 -162 -5z m281 -135 c15 -15 16 -95 1 -104 -15 -9
-108 -14 -131 -8 -14 4 -18 16 -18 58 0 29 3 56 7 59 11 12 128 8 141 -5z"/>
<path d="M5568 4073 c-19 -5 -23 -44 -9 -93 6 -23 12 -25 81 -30 l75 -5 3
-232 c1 -128 6 -233 10 -233 4 -1 28 -2 54 -4 29 -2 51 1 58 8 5 8 11 105 12
237 l3 224 80 5 80 5 0 60 0 60 -215 2 c-118 0 -223 -1 -232 -4z"/>
<path d="M6615 4073 c-11 -3 -37 -22 -57 -43 -34 -35 -38 -43 -38 -92 0 -42 6
-62 25 -88 23 -32 24 -35 8 -44 -45 -24 -86 -78 -94 -122 -25 -131 58 -214
211 -214 38 0 72 5 75 10 3 6 15 10 25 10 10 0 25 7 34 15 21 21 41 19 72 -10
15 -14 34 -23 42 -20 7 3 31 5 53 5 58 0 59 20 5 82 -44 51 -56 81 -37 93 6 3
13 26 17 50 3 25 10 48 15 51 5 3 9 14 9 25 0 17 -7 19 -59 19 -64 0 -76 -11
-65 -55 10 -40 -15 -39 -51 2 -19 21 -34 42 -35 46 0 4 16 24 35 44 19 20 35
44 35 55 0 10 5 27 12 37 15 25 -8 76 -54 116 -29 26 -42 30 -98 32 -36 1 -74
-1 -85 -4z m99 -99 c21 -8 20 -63 -2 -91 -19 -25 -28 -22 -61 25 -22 32 -22
34 -6 53 18 19 41 24 69 13z m-5 -303 c33 -37 58 -71 54 -75 -10 -10 -136 -7
-153 4 -22 14 -19 90 5 118 11 12 22 22 26 22 4 0 34 -31 68 -69z"/>
<path d="M7497 4073 c-11 -10 -8 -581 2 -588 6 -3 92 -6 193 -6 l183 -1 0 58
0 59 -127 3 -128 3 0 64 0 64 118 3 117 3 3 43 c5 68 -5 73 -127 71 l-106 -2
-6 44 c-4 24 -5 47 -2 52 2 4 57 7 122 7 78 0 121 4 129 12 18 18 15 105 -4
112 -21 8 -359 8 -367 -1z"/>
<path d="M8083 4072 c-25 -4 -29 -16 -13 -35 21 -24 99 -149 105 -168 4 -10
11 -19 16 -19 5 0 9 -6 9 -14 0 -8 7 -21 15 -30 14 -14 8 -26 -57 -124 -103
-153 -111 -168 -99 -190 9 -16 19 -18 73 -15 54 3 66 8 85 31 13 15 23 35 23
44 0 9 6 23 13 30 8 7 22 30 32 51 20 43 31 46 45 15 10 -24 31 -59 40 -68 3
-3 14 -22 24 -43 11 -20 24 -41 30 -46 9 -8 105 -16 144 -12 27 2 8 46 -77
173 -77 114 -88 135 -76 148 18 21 155 249 155 259 0 5 -30 11 -67 14 -83 6
-88 3 -139 -99 -41 -83 -51 -94 -60 -67 -10 32 -39 87 -51 101 -7 7 -13 19
-13 26 0 34 -70 50 -157 38z"/>
<path d="M8783 4074 c-10 -4 -13 -73 -13 -294 0 -218 3 -290 13 -297 17 -13
117 -4 119 10 0 7 2 50 2 97 l1 85 80 -2 c95 -2 146 17 194 72 32 37 36 59 31
170 -2 60 -36 107 -101 140 -26 14 -65 19 -174 21 -77 2 -146 1 -152 -2z m269
-141 c24 -22 25 -94 1 -115 -12 -10 -39 -15 -82 -14 l-64 1 -2 65 c0 36 1 68
3 73 7 15 125 8 144 -10z"/>
<path d="M9525 4056 c-55 -26 -111 -77 -121 -110 -4 -12 -12 -24 -18 -28 -7
-5 -11 -51 -11 -130 0 -142 11 -175 78 -240 125 -119 354 -97 442 42 29 45 55
136 55 191 0 103 -59 213 -144 267 -36 23 -54 26 -136 29 -84 3 -101 1 -145
-21z m171 -106 c38 0 92 -62 100 -115 8 -56 -2 -130 -23 -171 -34 -65 -132
-88 -193 -44 -83 59 -94 230 -19 302 19 19 77 38 97 32 8 -2 25 -4 38 -4z"/>
<path d="M10142 4072 c-9 -6 -12 -73 -10 -298 l3 -289 50 -6 c73 -10 83 5 82
123 0 85 1 92 21 99 33 12 47 3 75 -49 54 -103 77 -146 88 -158 8 -9 35 -14
80 -14 84 0 86 6 29 101 -22 37 -40 72 -40 78 0 6 -4 11 -8 11 -15 0 -35 54
-22 58 20 7 57 46 74 79 19 38 21 134 4 166 -47 83 -89 99 -268 104 -80 2
-151 0 -158 -5z m272 -138 c16 -16 21 -70 8 -90 -4 -7 -38 -13 -77 -15 l-70
-4 -7 55 c-3 30 -4 58 -2 62 10 15 132 9 148 -8z"/>
<path d="M10753 4072 c-17 -11 -19 -87 -4 -106 10 -12 32 -16 82 -16 48 0 69
-4 69 -12 1 -7 0 -108 0 -224 -1 -245 -1 -245 77 -239 74 6 74 8 72 255 l-1
215 78 5 79 5 3 54 c2 37 -1 57 -10 62 -16 11 -429 11 -445 1z"/>
<path d="M2397 4063 c-4 -3 -7 -130 -7 -281 0 -272 0 -274 23 -293 24 -20 62
-24 101 -9 l26 10 0 290 0 290 -68 0 c-38 0 -72 -3 -75 -7z"/>
<path d="M3567 4063 c-4 -3 -7 -131 -7 -284 0 -278 0 -279 23 -292 12 -7 44
-12 71 -12 46 1 50 3 58 30 5 17 7 61 6 99 l-3 69 90 2 c100 1 132 14 181 67
26 29 29 42 33 111 4 95 -1 114 -36 153 -52 57 -80 64 -253 64 -86 0 -160 -3
-163 -7z m293 -135 c26 -28 27 -89 1 -112 -14 -13 -33 -16 -82 -14 l-64 3 0
65 c-1 36 1 68 3 73 2 4 30 7 62 7 48 0 63 -4 80 -22z"/>
</g>
</svg>
