<svg xmlns="http://www.w3.org/2000/svg" viewBox="0 0 100 100">
  <!-- Yellow background with 15% border radius (matching header style) -->
  <rect width="100" height="100" fill="#FFB800" rx="15"/>
  <!-- Company logo embedded and scaled to fit -->
  <g transform="translate(20, 20) scale(0.045)">
    <g transform="translate(0, 1350) scale(0.1, -0.1)" fill="#000000" stroke="none">
      <path d="M3485 9740 c-111 -11 -228 -30 -248 -41 -10 -6 -41 -13 -68 -16 -27 -3 -52 -10 -55 -14 -3 -5 -13 -9 -22 -9 -9 -1 -35 -9 -57 -20 -22 -11 -46 -19 -52 -20 -21 0 -15 -27 10 -42 12 -8 41 -18 65 -22 24 -3 51 -11 60 -16 9 -5 40 -19 67 -30 76 -32 274 -135 285 -149 3 -3 32 -24 65 -46 33 -22 65 -44 72 -50 6 -5 26 -21 45 -35 31 -24 248 -238 277 -275 8 -9 43 -56 78 -104 35 -47 67 -90 71 -96 15 -20 67 -111 92 -160 14 -28 28 -51 33 -53 4 -2 7 -9 7 -15 1 -7 9 -30 20 -52 11 -22 19 -47 20 -55 0 -9 4 -20 9 -25 10 -10 23 -56 41 -143 5 -23 14 -51 20 -61 5 -11 10 -37 10 -58 0 -86 -9 -82 182 -82 94 0 185 -5 202 -10 17 -5 57 -12 88 -16 32 -3 60 -10 63 -15 3 -5 26 -12 50 -16 25 -3 47 -10 50 -14 3 -5 23 -11 45 -15 22 -4 42 -11 46 -16 3 -5 12 -9 20 -9 8 0 34 -8 57 -19 23 -10 57 -24 76 -32 73 -30 303 -151 331 -173 8 -7 44 -30 80 -51 36 -21 67 -41 70 -44 3 -3 28 -21 55 -40 94 -65 150 -104 155 -111 3 -3 33 -27 67 -53 34 -26 68 -53 75 -60 7 -7 42 -37 78 -67 144 -121 444 -419 592 -588 20 -23 41 -42 46 -42 5 0 18 12 27 27 23 34 124 141 311 328 152 152 177 176 294 275 85 72 120 103 134 116 23 22 253 191 291 214 22 13 42 26 45 29 3 4 14 11 25 18 11 7 50 30 87 52 36 23 71 41 77 41 6 0 11 4 11 8 0 5 25 19 55 33 30 13 55 27 55 32 0 4 5 7 12 7 6 0 39 13 72 29 106 51 154 71 170 71 8 0 18 5 21 10 3 6 13 10 22 10 8 0 29 6 46 14 18 8 55 20 82 26 28 6 82 18 120 27 44 10 139 17 255 20 101 2 190 9 196 14 7 6 15 36 17 67 6 68 29 177 40 188 4 4 7 16 7 27 0 10 7 35 16 55 59 136 87 195 95 202 3 3 12 17 20 32 116 220 343 479 564 644 55 41 105 78 110 82 28 21 114 70 133 76 12 4 22 11 22 16 0 5 14 11 30 15 17 4 30 11 30 16 0 5 5 9 11 9 10 0 89 33 120 50 9 5 34 12 55 16 22 4 49 14 62 22 24 15 30 42 9 42 -7 0 -29 9 -50 20 -20 11 -46 20 -56 20 -11 0 -22 4 -25 9 -3 4 -29 11 -58 15 -28 4 -57 10 -62 14 -15 10 -134 30 -236 41 -111 12 -518 13 -640 1 -126 -12 -296 -43 -386 -71 -17 -5 -40 -9 -53 -9 -12 0 -34 -6 -49 -14 -15 -7 -46 -17 -69 -21 -24 -4 -45 -11 -49 -16 -3 -5 -13 -9 -22 -9 -9 0 -29 -6 -44 -14 -15 -8 -41 -17 -59 -21 -19 -4 -40 -11 -49 -16 -8 -5 -37 -18 -65 -30 -120 -51 -337 -162 -363 -186 -7 -7 -19 -13 -25 -13 -22 -1 -55 -36 -85 -92 -56 -105 -230 -310 -347 -408 -141 -118 -294 -220 -410 -274 -44 -21 -88 -41 -97 -47 -30 -16 -48 -11 -48 14 0 13 -4 27 -10 33 -5 5 -14 54 -20 109 -26 256 -30 279 -51 297 -27 23 -38 17 -118 -66 -47 -49 -72 -67 -100 -72 -20 -4 -41 -11 -48 -16 -12 -10 -122 -5 -182 7 -23 5 -54 30 -104 81 -110 114 -136 102 -153 -70 -25 -250 -47 -335 -82 -317 -9 5 -53 27 -97 48 -44 21 -82 41 -85 45 -3 4 -14 11 -25 15 -24 10 -193 122 -215 143 -9 8 -38 33 -66 55 -132 107 -273 263 -362 399 -28 44 -53 82 -54 86 -4 10 -153 100 -166 100 -6 0 -12 3 -14 8 -4 9 -151 82 -166 82 -7 0 -12 5 -12 10 0 6 -6 10 -12 10 -7 1 -31 9 -53 20 -22 11 -48 19 -57 20 -9 0 -20 5 -23 10 -3 6 -14 10 -23 10 -9 1 -35 9 -57 20 -22 11 -48 19 -57 20 -9 0 -19 4 -22 9 -4 5 -25 12 -49 16 -23 4 -54 14 -69 21 -15 8 -40 14 -57 14 -16 0 -33 5 -36 10 -3 6 -21 10 -38 10 -18 0 -48 5 -67 11 -48 15 -177 38 -280 49 -97 10 -540 10 -645 0z"/>
    </g>
  </g>
</svg>
